<svg xmlns="http://www.w3.org/2000/svg" version="1.1" xmlns:xlink="http://www.w3.org/1999/xlink" width="512" height="512" x="0" y="0" viewBox="0 0 512 512" style="enable-background:new 0 0 512 512" xml:space="preserve" class=""><g><path d="M428.061 417.029c0 19.89-6.21 35.14-18.44 45.31-25.75 21.41-70.309 13.14-109.629 5.84-16.83-3.13-32.72-6.08-43.99-6.08-13.06 0-30 3.11-47.94 6.4-20.53 3.77-41.43 7.6-60.24 7.6-17.69 0-33.54-3.38-45.55-13.39-12.16-10.13-18.33-25.5-18.33-45.68 0-41.53 18.49-88.649 49.45-126.029 34.45-41.6 77.989-64.5 122.609-64.5S344.16 249.4 378.61 291c30.961 37.38 49.451 84.499 49.451 126.029zM400.091 128.271c0 23.64-6.38 46.05-17.96 63.13-12.6 18.58-30.65 29.24-49.52 29.24-18.86 0-36.91-10.66-49.51-29.24-11.58-17.08-17.96-39.49-17.96-63.13s6.38-46.05 17.96-63.13c12.6-18.58 30.65-29.24 49.51-29.24 18.87 0 36.92 10.66 49.52 29.24 11.58 17.08 17.96 39.49 17.96 63.13zM179.389 220.636c18.866 0 36.914-10.658 49.518-29.241 11.578-17.071 17.955-39.489 17.955-63.124s-6.377-46.055-17.955-63.126c-12.604-18.583-30.652-29.24-49.518-29.24s-36.915 10.658-49.518 29.24c-11.578 17.071-17.955 39.49-17.955 63.126s6.377 46.055 17.955 63.126c12.604 18.582 30.652 29.239 49.518 29.239zM512 231.5c0 9.66-1.69 19.62-5.06 29.26-7.27 20.81-21.25 37.34-38.36 45.34-7.07 3.31-14.45 4.98-21.68 4.98-5.45 0-10.82-.95-15.9-2.86-14.7-5.52-25.59-18.08-30.67-35.36-4.6-15.64-3.86-33.62 2.09-50.62 7.27-20.82 21.25-37.34 38.35-45.35 12.42-5.81 25.76-6.56 37.59-2.12 14.69 5.52 25.58 18.08 30.66 35.36 1.99 6.77 2.98 13.99 2.98 21.37zM111.672 272.86c4.597-15.637 3.856-33.615-2.085-50.624-7.271-20.813-21.252-37.341-38.357-45.345-12.413-5.809-25.761-6.561-37.585-2.121-14.694 5.521-25.585 18.08-30.666 35.363-4.597 15.637-3.856 33.615 2.085 50.623 7.272 20.814 21.252 37.341 38.357 45.345 7.076 3.311 14.455 4.979 21.682 4.979 5.452 0 10.818-.95 15.902-2.859 14.697-5.518 25.586-18.077 30.667-35.361z" style="" fill="#e37500" data-original="#e37500" class=""></path><path d="M283.102 191.401c-11.58-17.08-17.96-39.49-17.96-63.13s6.38-46.05 17.96-63.13c12.6-18.58 30.65-29.24 49.51-29.24 18.87 0 36.92 10.66 49.52 29.24 11.58 17.08 17.96 39.49 17.96 63.13s-6.38 46.05-17.96 63.13c-12.6 18.58-30.65 29.24-49.52 29.24-18.86-.001-36.91-10.661-49.51-29.24zM378.611 291c30.96 37.38 49.45 84.499 49.45 126.029 0 19.89-6.21 35.14-18.44 45.31-25.75 21.41-70.309 13.14-109.629 5.84-16.83-3.13-32.72-6.08-43.99-6.08V226.5c44.62 0 88.16 22.9 122.609 64.5zM512 231.5c0 9.66-1.69 19.62-5.06 29.26-7.27 20.81-21.25 37.34-38.36 45.34-7.07 3.31-14.45 4.98-21.68 4.98-5.45 0-10.82-.95-15.9-2.86-14.7-5.52-25.59-18.08-30.67-35.36-4.6-15.64-3.86-33.62 2.09-50.62 7.27-20.82 21.25-37.34 38.35-45.35 12.42-5.81 25.76-6.56 37.59-2.12 14.69 5.52 25.58 18.08 30.66 35.36 1.99 6.77 2.98 13.99 2.98 21.37z" style="" fill="#974c00" data-original="#974c00"></path></g></svg>